# This file uses centimeters as units for non-parametric coordinates.

mtllib rocks.mtl
g default
v -2.049263 0.041356 1.408437
v -1.576647 -0.531277 2.081362
v 1.576647 -0.531277 2.081362
v 2.049263 0.041356 1.408437
v -1.833547 0.755654 1.054677
v -1.196591 0.386092 2.299599
v 1.196591 0.386092 2.299599
v 1.833547 0.755654 1.054677
v -1.831696 2.078290 1.050441
v -1.254624 1.808348 1.695119
v 1.254624 1.808348 1.695119
v 1.831696 2.078290 1.050441
v -1.249799 3.138947 1.200729
v -0.507589 3.298802 1.345308
v 0.507590 3.298802 1.345308
v 1.249799 3.138947 1.200729
v -1.387462 2.897557 -0.714587
v -0.335861 3.680466 0.271641
v 0.335861 3.680466 0.271641
v 1.387462 2.897557 -0.714587
v -1.717117 2.439881 -1.711421
v -0.126029 3.255876 -2.324540
v 0.126029 3.255876 -2.324540
v 1.717117 2.439881 -1.711421
v -1.541431 2.164203 -2.539880
v -0.285665 2.633119 -3.295598
v 0.285666 2.633119 -3.295598
v 1.541431 2.164203 -2.539880
v -1.149456 1.284738 -2.830229
v -0.126029 1.940107 -3.640309
v 0.126029 1.940107 -3.640309
v 1.860981 1.168567 -2.870040
v -1.408487 0.131431 -3.090343
v -0.354955 0.294549 -4.012326
v 0.354969 0.294549 -4.012326
v 2.061090 0.032280 -3.261238
v -1.760576 -0.381950 -2.830295
v -0.251150 -0.469115 -3.687672
v 0.251150 -0.469115 -3.687672
v 1.763821 -0.399518 -3.254066
v -1.763821 -0.399518 -1.938297
v -1.576647 -0.531277 -0.550175
v 1.576647 -0.531277 -0.550175
v 2.228431 -0.532477 -2.496632
v -1.973653 0.025072 0.657884
v -1.576647 -0.531277 0.765594
v 1.576647 -0.531277 0.765594
v 2.184206 -0.034158 0.656195
v 2.360560 0.067990 -2.216830
v 2.015665 1.074930 0.274015
v 2.091863 1.258224 -2.007135
v 2.196135 2.237705 -0.017657
v -1.847589 0.257614 -2.268673
v -1.651629 1.048928 0.271641
v -2.091863 1.258224 -2.007135
v -1.678613 2.068370 -0.032081
v -2.030044 -0.652832 1.179686
v -1.664784 -0.907205 1.183823
v -0.846789 -0.907205 0.046736
v -0.966846 -0.652832 -0.298253
v -1.936303 -0.238784 1.090668
v -1.487497 -0.499695 1.103386
v -0.866683 -0.499695 0.240399
v -1.021440 -0.238784 -0.181074
v -2.102699 0.252006 1.008363
v -1.720528 0.132093 0.967505
v -1.069605 0.132093 0.062664
v -1.152380 0.252006 -0.312666
v -1.897555 0.723166 0.837515
v -1.652883 0.794176 0.607378
v -1.389536 0.794176 0.241302
v -1.249135 0.723166 -0.063846
v -2.623934 0.615937 0.390305
v -1.995502 0.963717 0.266933
v -1.821251 0.963717 0.024708
v -1.904092 0.615937 -0.610339
v -3.064288 0.498958 -0.079189
v -2.877259 0.775108 -0.482208
v -2.811873 0.775108 -0.573101
v -2.489234 0.498958 -0.878565
v -3.342877 0.330371 -0.429021
v -3.268836 0.498469 -0.676544
v -3.120627 0.498469 -0.882568
v -2.909490 0.330371 -1.031467
v -3.581906 -0.100787 -0.252586
v -3.716121 -0.095939 -0.675118
v -3.261491 -0.095939 -1.307095
v -2.818211 -0.100787 -1.314189
v -3.892547 -0.641001 0.010188
v -3.545265 -0.540360 -0.837485
v -3.361104 -0.540360 -1.093485
v -2.667843 -0.641001 -1.692260
v -3.637308 -0.848676 -0.132744
v -3.401266 -0.879591 -0.790699
v -3.270964 -0.879591 -0.971829
v -2.722203 -0.848676 -1.404820
v -3.162838 -0.848676 0.208579
v -2.613723 -0.907205 0.501176
v -1.795728 -0.907205 -0.635910
v -2.247734 -0.848676 -1.063497
v -2.281081 -0.660066 0.957720
v -2.139253 -0.907205 0.842499
v -1.321258 -0.907205 -0.294587
v -1.257112 -0.660066 -0.465689
v -2.193373 -0.641001 -1.350937
v -1.479928 -0.205253 -0.449761
v -2.187459 -0.112280 -1.199647
v -1.582451 0.247599 -0.538280
v -3.418077 -0.641001 0.351511
v -2.336825 -0.205253 0.741402
v -3.272758 -0.112280 0.309015
v -2.453348 0.247599 0.672344
vt 0.288683 0.086161
vt 0.298488 0.030303
vt 0.330331 0.029774
vt 0.332965 0.106795
vt 0.414127 0.058624
vt 0.420739 0.122259
vt 0.325432 0.318667
vt 0.407222 0.290483
vt 0.487551 0.082971
vt 0.507881 0.144066
vt 0.492971 0.268974
vt 0.288771 0.229703
vt 0.288771 0.326735
vt 0.331000 0.374142
vt 0.383677 0.348053
vt 0.522131 0.027241
vt 0.471025 0.001820
vt 0.568057 0.098852
vt 0.541632 0.217578
vt 0.481215 0.347741
vt 0.288771 0.423767
vt 0.356423 0.439861
vt 0.559434 0.358824
vt 0.461308 0.395283
vt 0.013004 0.380126
vt 0.011709 0.314345
vt 0.060169 0.338709
vt 0.050864 0.399303
vt 0.043020 0.122889
vt 0.118525 0.151372
vt 0.133960 0.319422
vt 0.135915 0.380121
vt 0.062893 0.467295
vt 0.006576 0.443354
vt 0.001992 0.211978
vt 0.001992 0.114946
vt 0.044221 0.067539
vt 0.096897 0.093627
vt 0.193704 0.173770
vt 0.221101 0.297614
vt 0.200771 0.358709
vt 0.184245 0.439861
vt 0.001992 0.017914
vt 0.069644 0.001820
vt 0.194436 0.093939
vt 0.254853 0.224102
vt 0.281277 0.342829
vt 0.235352 0.414440
vt 0.174529 0.046397
vt 0.272654 0.082856
vt 0.401722 0.778751
vt 0.420481 0.753309
vt 0.451015 0.761951
vt 0.431774 0.793033
vt 0.487209 0.752247
vt 0.478366 0.779925
vt 0.401722 0.862606
vt 0.431774 0.856674
vt 0.521955 0.770596
vt 0.527191 0.793099
vt 0.478366 0.846653
vt 0.486884 0.735609
vt 0.514047 0.730294
vt 0.527191 0.820096
vt 0.059425 0.805513
vt 0.059783 0.836672
vt 0.027009 0.848646
vt 0.019587 0.786134
vt 0.091221 0.818524
vt 0.103618 0.836778
vt 0.059783 0.883278
vt 0.027009 0.867525
vt 0.001992 0.845196
vt 0.004272 0.796675
vt 0.019587 0.760963
vt 0.058578 0.764097
vt 0.103654 0.792725
vt 0.124019 0.822446
vt 0.103618 0.851971
vt 0.001992 0.858553
vt 0.085117 0.737303
vt 0.112280 0.758102
vt 0.019587 0.911682
vt 0.004272 0.890485
vt 0.085442 0.712523
vt 0.120188 0.725123
vt 0.051721 0.732210
vt 0.049249 0.706454
vt 0.018181 0.716258
vt 0.018714 0.699889
vt 0.779212 0.441913
vt 0.833946 0.431251
vt 0.846610 0.510429
vt 0.769060 0.583159
vt 0.908811 0.431251
vt 0.896147 0.510429
vt 0.862085 0.701886
vt 0.744749 0.656671
vt 0.963546 0.441913
vt 0.973698 0.583159
vt 0.880673 0.701886
vt 0.998008 0.656671
vt 0.892445 0.773497
vt 0.850312 0.773497
vt 0.575418 0.065047
vt 0.686731 0.001820
vt 0.588982 0.233196
vt 0.575179 0.130828
vt 0.723774 0.001820
vt 0.821523 0.233196
vt 0.835326 0.033796
vt 0.869589 0.089653
vt 0.821523 0.330228
vt 0.588982 0.330228
vt 0.821523 0.427260
vt 0.588982 0.427260
vt 0.346932 0.704054
vt 0.364975 0.721025
vt 0.339709 0.746132
vt 0.293365 0.737034
vt 0.384396 0.748022
vt 0.352559 0.763995
vt 0.274683 0.801377
vt 0.260890 0.771657
vt 0.394750 0.770525
vt 0.346450 0.810827
vt 0.279505 0.808080
vt 0.303298 0.830607
vt 0.256736 0.830902
vt 0.245806 0.815709
vt 0.272306 0.841883
vt 0.325553 0.854285
vt 0.279037 0.862732
vt 0.246348 0.862209
vt 0.180922 0.677075
vt 0.132400 0.659668
vt 0.227670 0.601590
vt 0.206093 0.642085
vt 0.119043 0.650059
vt 0.143815 0.541267
vt 0.252841 0.566600
vt 0.261338 0.577059
vt 0.216633 0.660908
vt 0.191462 0.695898
vt 0.087112 0.609590
vt 0.112283 0.574600
vt 0.168986 0.506277
vt 0.278012 0.531610
vt 0.277707 0.558546
vt 0.065914 0.605581
vt 0.091085 0.570591
vt 0.156368 0.501546
vt 0.194157 0.471287
vt 0.168716 0.480140
vt 0.487264 0.443852
vt 0.719805 0.443852
vt 0.691778 0.511504
vt 0.515291 0.511504
vt 0.696057 0.616389
vt 0.511012 0.616389
vt 0.640967 0.726303
vt 0.566102 0.726303
vt 0.738614 0.636296
vt 0.695701 0.714515
vt 0.468455 0.636296
vt 0.511367 0.714515
vt 0.289257 0.471287
vt 0.331391 0.471287
vt 0.319618 0.522393
vt 0.301030 0.522393
vt 0.336501 0.643746
vt 0.284148 0.643746
vt 0.447563 0.579291
vt 0.462320 0.663087
vt 0.328845 0.700062
vt 0.291803 0.700062
vt 0.440398 0.694930
vt 0.539609 0.749053
vt 0.566545 0.730294
vt 0.579619 0.760346
vt 0.546522 0.779588
vt 0.562434 0.806938
vt 0.534251 0.815781
vt 0.567423 0.855764
vt 0.549379 0.850527
vt 0.183315 0.869109
vt 0.183673 0.836419
vt 0.223511 0.825330
vt 0.216089 0.876455
vt 0.223511 0.790340
vt 0.184521 0.789904
vt 0.191377 0.737726
vt 0.157981 0.745287
vt 0.224917 0.721295
vt 0.238826 0.794349
vt 0.139444 0.812158
vt 0.130818 0.769007
vt 0.193850 0.703915
vt 0.157656 0.713571
vt 0.224384 0.699889
vt 0.586873 0.795320
vt 0.600782 0.730294
vt 0.634322 0.734405
vt 0.602188 0.814143
vt 0.667718 0.742998
vt 0.641178 0.803426
vn -0.743308 0.320189 0.587343
vn -0.258987 -0.068946 0.963417
vn -0.176884 0.144953 0.973499
vn -0.801663 0.170152 0.573049
vn 0.258987 -0.068946 0.963417
vn 0.176884 0.144953 0.973499
vn 0.743308 0.320189 0.587343
vn 0.801663 0.170152 0.573049
vn -0.268877 0.304387 0.913813
vn -0.681192 0.204811 0.702872
vn 0.268877 0.304387 0.913813
vn 0.681193 0.204811 0.702872
vn -0.075783 0.245392 0.966457
vn -0.469126 0.309080 0.827279
vn 0.075783 0.245392 0.966457
vn 0.469126 0.309080 0.827279
vn -0.482412 0.875222 0.035576
vn -0.323443 0.934679 0.147513
vn -0.310989 0.950308 -0.014186
vn -0.488672 0.857478 -0.161033
vn 0.323443 0.934679 0.147512
vn 0.310989 0.950308 -0.014186
vn 0.482412 0.875221 0.035576
vn 0.488672 0.857478 -0.161033
vn -0.356882 0.890140 -0.283347
vn -0.503789 0.824016 -0.259217
vn 0.356882 0.890140 -0.283347
vn 0.503789 0.824016 -0.259217
vn -0.422218 0.798348 -0.429385
vn -0.526764 0.758610 -0.383445
vn 0.422218 0.798349 -0.429385
vn 0.526764 0.758610 -0.383445
vn -0.599132 0.110107 -0.793043
vn -0.518585 0.170615 -0.837831
vn -0.469326 0.236173 -0.850856
vn -0.653612 0.217512 -0.724900
vn 0.471299 0.375993 -0.797813
vn 0.378317 0.324113 -0.867080
vn 0.537690 0.356313 -0.764153
vn 0.479276 0.314244 -0.819478
vn -0.496719 0.087243 -0.863515
vn -0.642060 0.028727 -0.766116
vn 0.346214 0.111879 -0.931461
vn 0.439968 0.144300 -0.886344
vn -0.373317 -0.316063 -0.872203
vn -0.545672 -0.258832 -0.797024
vn 0.204781 -0.366796 -0.907483
vn 0.305321 -0.348426 -0.886216
vn -0.110501 -0.992293 -0.056073
vn -0.011011 -0.999665 -0.023434
vn -0.158030 -0.987410 -0.006908
vn -0.152617 -0.986904 -0.052245
vn -0.000466 -0.999686 -0.025057
vn 0.118134 -0.992929 0.011725
vn -0.002582 -0.998803 -0.048850
vn 0.038856 -0.998555 -0.037122
vn -0.146766 -0.989171 0.000396
vn -0.786470 -0.617608 0.004947
vn 0.132590 -0.990959 0.020478
vn 0.572572 -0.814524 0.093333
vn -0.070696 -0.997496 -0.002146
vn -0.783979 -0.620331 -0.023798
vn 0.067912 -0.997668 0.006755
vn 0.727804 -0.681953 0.072393
vn 0.995466 -0.061848 -0.072270
vn 0.882634 -0.264532 -0.388563
vn 0.942229 0.059561 -0.329633
vn 0.997936 0.056903 -0.029757
vn 0.989166 0.097013 0.110179
vn 0.993352 0.031942 0.110600
vn 0.926558 0.291309 0.237970
vn 0.955507 0.142190 0.258434
vn 0.912970 0.295931 -0.280910
vn 0.974484 0.201503 -0.098884
vn 0.938555 0.342055 0.045962
vn 0.898137 0.397235 0.188558
vn 0.883939 0.365653 -0.291461
vn 0.855455 0.476491 -0.202863
vn 0.821032 0.566935 -0.067014
vn 0.755776 0.645618 0.109455
vn -0.962689 0.092381 -0.254353
vn -0.990686 0.122956 -0.058508
vn -0.983681 0.067319 -0.166856
vn -0.823994 0.144919 -0.547753
vn -0.985501 0.160220 -0.055840
vn -0.999976 0.006022 0.003536
vn -0.961743 0.247838 -0.116737
vn -0.981805 0.118538 -0.148347
vn -0.995520 0.039434 -0.085937
vn -0.773130 0.158514 -0.614120
vn -0.984932 0.167784 0.041929
vn -0.965679 0.240458 -0.098208
vn -0.951135 0.303819 -0.055109
vn -0.807009 0.155262 -0.569764
vn -0.932045 0.359344 0.046521
vn -0.911260 0.409975 -0.039055
vn 0.089140 0.172912 0.980895
vn 0.626943 -0.114337 0.770629
vn 0.710211 0.134716 0.690979
vn 0.123197 0.214934 0.968827
vn 0.929977 -0.114337 0.349385
vn 0.880935 0.134716 0.453657
vn 0.958336 0.172912 -0.227364
vn 0.957722 0.214934 -0.191237
vn 0.638561 0.331236 0.694639
vn 0.298971 0.283299 0.911240
vn 0.861624 0.331236 0.384562
vn 0.959011 0.283299 -0.006275
vn 0.740289 0.245392 0.625903
vn 0.397607 0.309080 0.863932
vn 0.828799 0.245392 0.502866
vn 0.945520 0.309080 0.102284
vn -0.252836 0.875222 0.412385
vn -0.069135 0.934679 0.348706
vn -0.191775 0.950571 0.244206
vn -0.422736 0.851199 0.311054
vn 0.308628 0.934679 -0.176419
vn 0.170558 0.950571 -0.259470
vn 0.310595 0.875222 -0.370834
vn 0.160502 0.851199 -0.499699
vn -0.425184 0.897017 0.120742
vn -0.509317 0.815991 0.273414
vn -0.020712 0.897017 -0.441510
vn 0.097287 0.815991 -0.569820
vn -0.620761 0.780055 0.078551
vn -0.659388 0.717280 0.225203
vn -0.122897 0.780055 -0.613523
vn 0.003862 0.717280 -0.696774
vn -0.793193 0.568614 0.217997
vn -0.749984 0.556837 -0.357010
vn -0.910839 0.305131 -0.277970
vn -0.958534 0.283179 -0.031955
vn -0.576943 0.556837 -0.597553
vn -0.553148 0.305132 -0.775191
vn -0.045513 0.568614 -0.821344
vn -0.335063 0.283182 -0.898633
vn -0.890397 -0.193101 -0.412195
vn -0.948997 -0.189338 -0.252102
vn -0.673908 -0.193101 -0.713135
vn -0.540754 -0.189338 -0.819595
vn -0.781685 -0.483594 -0.393835
vn -0.789183 -0.518129 -0.329747
vn -0.621936 -0.483595 -0.615899
vn -0.563557 -0.518131 -0.643385
vn -0.089099 -0.994663 0.052032
vn -0.027005 -0.999633 -0.002068
vn -0.096513 -0.987678 0.123200
vn -0.108476 -0.990569 0.083697
vn -0.010547 -0.999633 -0.024946
vn 0.086120 -0.987678 -0.130676
vn 0.021002 -0.994663 -0.101019
vn 0.044864 -0.990569 -0.129459
vn -0.085386 -0.989171 0.119372
vn -0.455261 -0.617609 0.641324
vn 0.086029 -0.989171 -0.118910
vn 0.463293 -0.617608 -0.635547
vn -0.043026 -0.997496 0.056136
vn -0.477141 -0.620332 0.622515
vn 0.039542 -0.997496 -0.058642
vn 0.438503 -0.620331 -0.650311
vn 0.638707 -0.300539 -0.708329
vn 0.360143 -0.787188 -0.500631
vn 0.435385 0.071367 -0.897411
vn 0.604185 -0.013114 -0.796736
vn 0.621597 0.037351 -0.782446
vn 0.649732 0.020149 -0.759896
vn 0.490162 0.282806 -0.824477
vn 0.494991 0.112616 -0.861569
vn 0.233995 0.499102 -0.834352
vn 0.509316 0.344235 -0.788733
vn 0.566092 0.276929 -0.776434
vn 0.508429 0.183854 -0.841248
vn 0.132726 0.533794 -0.835133
vn 0.303642 0.499913 -0.811104
vn 0.441419 0.452280 -0.774978
vn 0.500447 0.409975 -0.762544
vn -0.360143 -0.787188 0.500632
vn -0.468493 -0.300539 0.830777
vn -0.563288 -0.013114 0.826156
vn -0.712410 0.071367 0.698126
vn -0.544204 0.037351 0.838121
vn -0.513878 0.020149 0.857626
vn -0.625844 0.282806 0.726870
vn -0.659476 0.112616 0.743242
vn -0.585865 0.344236 0.733665
vn -0.716655 0.499102 0.487137
vn -0.556152 0.276929 0.783585
vn -0.635936 0.183854 0.749522
vn -0.672469 0.499913 0.545777
vn -0.749595 0.533795 0.391371
vn -0.594412 0.452281 0.664919
vn -0.563855 0.409975 0.716930
s 1
g pCube3
usemtl lambert2SG
f 1/37/1 2/43/2 6/44/3 5/38/4
f 2/155/2 3/156/5 7/157/6 6/158/3
f 3/21/5 4/14/7 8/15/8 7/22/6
f 5/38/4 6/44/3 10/49/9 9/45/10
f 6/158/3 7/157/6 11/159/11 10/160/9
f 7/22/6 8/15/8 12/20/12 11/24/11
f 9/165/10 10/160/9 14/162/13 13/166/14
f 10/160/9 11/159/11 15/161/15 14/162/13
f 11/159/11 12/163/12 16/164/16 15/161/15
s 2
f 13/91/17 14/92/18 18/93/19 17/94/20
f 14/92/18 15/95/21 19/96/22 18/93/19
f 15/95/21 16/99/23 20/100/24 19/96/22
f 17/94/20 18/93/19 22/97/25 21/98/26
f 18/93/19 19/96/22 23/101/27 22/97/25
f 19/96/22 20/100/24 24/102/28 23/101/27
f 21/40/26 22/47/25 26/48/29 25/41/30
f 22/97/25 23/101/27 27/103/31 26/104/29
f 23/18/27 24/10/28 28/9/32 27/16/31
s 3
f 25/41/33 26/48/34 30/42/35 29/32/36
f 26/167/34 27/168/37 31/169/38 30/170/35
f 27/16/37 28/9/39 32/5/40 31/17/38
f 29/32/36 30/42/35 34/33/41 33/28/42
f 30/170/35 31/169/38 35/171/43 34/172/41
f 31/169/38 32/173/40 36/174/44 35/171/43
f 33/28/42 34/33/41 38/34/45 37/25/46
f 34/172/41 35/171/43 39/175/47 38/176/45
f 35/171/43 36/174/44 40/177/48 39/175/47
s 4
f 37/105/49 38/106/50 42/107/51 41/108/52
f 38/106/50 39/109/53 43/110/54 42/107/51
f 39/109/53 40/111/55 44/112/56 43/110/54
f 41/26/52 42/35/51 46/36/57 45/29/58
f 42/107/51 43/110/54 47/113/59 46/114/57
f 43/12/54 44/1/56 48/7/60 47/13/59
f 45/29/58 46/36/57 2/43/61 1/37/62
f 46/114/57 47/113/59 3/115/63 2/116/61
f 47/13/59 48/7/60 4/14/64 3/21/63
s 5
f 44/1/65 40/2/66 36/3/67 49/4/68
f 48/7/69 44/1/65 49/4/68 50/8/70
f 4/14/71 48/7/69 50/8/70 8/15/72
f 49/4/68 36/3/67 32/5/73 51/6/74
f 50/8/70 49/4/68 51/6/74 52/11/75
f 8/15/72 50/8/70 52/11/75 12/20/76
f 51/6/74 32/5/73 28/9/77 24/10/78
f 52/11/75 51/6/74 24/10/78 20/19/79
f 12/20/76 52/11/75 20/19/79 16/23/80
s 6
f 37/25/81 41/26/82 53/27/83 33/28/84
f 41/26/82 45/29/85 54/30/86 53/27/83
f 45/29/85 1/37/87 5/38/88 54/30/86
f 33/28/84 53/27/83 55/31/89 29/32/90
f 53/27/83 54/30/86 56/39/91 55/31/89
f 54/30/86 5/38/88 9/45/92 56/39/91
f 29/32/90 55/31/89 21/40/93 25/41/94
f 55/31/89 56/39/91 17/46/95 21/40/93
f 56/39/91 9/45/92 13/50/96 17/46/95
s 7
f 57/178/97 58/179/98 62/180/99 61/181/100
f 58/57/98 59/51/101 63/54/102 62/58/99
f 59/51/101 60/52/103 64/53/104 63/54/102
f 61/181/100 62/180/99 66/182/105 65/183/106
f 62/58/99 63/54/102 67/56/107 66/61/105
f 63/54/102 64/53/104 68/55/108 67/56/107
f 65/183/106 66/182/105 70/184/109 69/185/110
f 66/61/105 67/56/107 71/60/111 70/64/109
f 67/56/107 68/55/108 72/59/112 71/60/111
s 8
f 69/117/113 70/118/114 74/119/115 73/120/116
f 70/118/114 71/121/117 75/122/118 74/119/115
f 71/121/117 72/125/119 76/126/120 75/122/118
f 73/120/116 74/119/115 78/123/121 77/124/122
f 74/119/115 75/122/118 79/127/123 78/123/121
f 75/122/118 76/126/120 80/128/124 79/127/123
f 77/77/122 78/78/121 82/70/125 81/69/126
f 78/123/121 79/127/123 83/129/127 82/130/125
f 79/127/123 80/128/124 84/131/128 83/129/127
s 9
f 81/69/129 82/70/130 86/66/131 85/65/132
f 82/70/130 83/79/133 87/71/134 86/66/131
f 83/129/133 84/131/135 88/133/136 87/134/134
f 85/65/132 86/66/131 90/67/137 89/68/138
f 86/66/131 87/71/134 91/72/139 90/67/137
f 87/186/134 88/187/136 92/188/140 91/189/139
f 89/68/138 90/67/137 94/73/141 93/74/142
f 90/67/137 91/72/139 95/80/143 94/73/141
f 91/72/139 92/83/140 96/84/144 95/80/143
s 10
f 93/135/145 94/136/146 98/137/147 97/138/148
f 94/136/146 95/139/149 99/140/150 98/137/147
f 95/139/149 96/145/151 100/146/152 99/140/150
f 97/138/148 98/137/147 102/141/153 101/142/154
f 98/137/147 99/140/150 103/147/155 102/141/153
f 99/140/150 100/146/152 104/152/156 103/147/155
f 101/142/154 102/141/153 58/148/157 57/149/158
f 102/141/153 103/147/155 59/153/159 58/148/157
f 103/147/155 104/152/156 60/154/160 59/153/159
s 11
f 100/146/161 96/145/162 92/150/163 105/151/164
f 104/194/165 100/195/161 105/190/164 106/192/166
f 60/200/167 104/194/165 106/192/166 64/198/168
f 105/190/164 92/188/163 88/187/169 107/191/170
f 106/192/166 105/190/164 107/191/170 108/193/171
f 64/198/168 106/192/166 108/193/171 68/199/172
f 107/132/170 88/133/169 84/131/173 80/128/174
f 108/193/171 107/191/170 80/196/174 76/197/175
f 68/55/172 108/62/171 76/63/175 72/59/176
s 12
f 93/135/177 97/138/178 109/143/179 89/144/180
f 97/201/178 101/202/181 110/203/182 109/204/179
f 101/89/181 57/90/183 61/88/184 110/87/182
f 89/68/180 109/75/179 111/76/185 85/65/186
f 109/204/179 110/203/182 112/205/187 111/206/185
f 110/87/182 61/88/184 65/85/188 112/81/187
f 85/65/186 111/76/185 77/77/189 81/69/190
f 111/76/185 112/81/187 73/82/191 77/77/189
f 112/81/187 65/85/188 69/86/192 73/82/191
